<svg transform="scale(2)" id="_0780_Construction_Worker" xmlns="http://www.w3.org/2000/svg" viewBox="0 0 500 500" class="show_show__wrapper__graphic__5Waiy "><title>React</title><defs><style>.cls-1{fill:#eedeb5;}.cls-2{fill:#fff;}.cls-3{fill:#DDBD6A;}.cls-4{fill:#4d4d4d;}.cls-5{fill:#af93a2;}.cls-6{fill:#4d4d4d;}.cls-7{fill:#e6e7e8;}.cls-8{fill:#bcbec0;}</style></defs><g id="clouds"><path class="cls-4" d="M199.13,57.32c1.34-7.61,9.84-13.13,17.35-11.26-1.65-3.86-.6-8.72,2.5-11.55,3.11-2.83,8.04-3.43,11.73-1.43,.74-10.52,10.47-19.61,21.02-19.65,10.55-.03,20.33,9,21.14,19.52,6.7-1.21,13.84,4.19,14.49,10.96,3.5-4.38,10.54-4.47,15.27-1.46,4.72,3.01,7.5,8.29,9.36,13.58,1.64,4.66,2.53,10.42-.81,14.07-4.92,5.38-13.64,4.37-20.92,4.37-24.43,0-48.86,.13-73.28,0-9.37-.05-19.77-6.25-17.84-17.16Z"></path><path class="cls-4" d="M446.07,212.44c-3.48-7.62-11.75-12.78-20.12-12.55,3.3-9.49-.28-20.94-8.39-26.86-8.11-5.93-20.1-5.85-28.14,.17-2.96-11.23-12.73-20.18-24.02-22.9-11.14-2.68-23.35,.48-32.32,7.63-4.51-11.04-13.85-20.2-25.35-23.53-17.48-5.05-37.94,3.97-46,20.28-7.9-3.89-17.95-2.95-25,2.33-5.99-10.04-19.42-14.92-30.46-11.06-11.04,3.85-18.52,16.02-16.96,27.61-11.05-.36-21.47,9.27-21.97,20.32-7.21-.79-14.69,3.57-17.55,10.24-2.86,6.67-.87,15.09,4.67,19.78,5.54,4.68,303.27,3.92,303.27,3.92,1.78,0,3.5-.7,5.25-1.04,.66-8.58-8.53-16.38-16.9-14.34Z"></path><path class="cls-4" d="M449.8,101.35c-.87-4.92-6.36-8.48-11.2-7.27,1.07-2.49,.39-5.63-1.62-7.46-2.01-1.83-5.19-2.21-7.57-.92-.48-6.79-6.76-12.67-13.57-12.69-6.81-.02-13.13,5.81-13.65,12.6-4.32-.78-8.93,2.7-9.36,7.08-2.26-2.83-6.81-2.89-9.86-.94-3.05,1.95-4.84,5.36-6.04,8.77-1.06,3.01-1.63,6.73,.52,9.09,3.18,3.47,8.8,2.82,13.51,2.82,15.77,0,31.55,.08,47.32,0,6.05-.03,12.76-4.03,11.52-11.08Z"></path></g><g id="ground"><path class="cls-7" d="M123.74,424.48c-29.91-8.27-63.33-2.76-89,14.68-4.37,2.97-8.9,6.95-9.14,12.23-.42,9.2,11.33,13.24,20.48,14.2,64.89,6.8,130.49,2.95,195.49,8.67,40.28,3.55,80.25,10.77,120.67,12.1,40.41,1.33,82.12-3.62,117.67-22.89,7.57-4.1,15.78-10.77,14.62-19.31-1.39-10.19-14.3-13.47-24.55-14.37-27-2.37-54-4.74-81.01-7.11-15.02-1.32-30.73-2.53-44.64,3.28-11.8-3.69-25.13-2.18-35.81,4.06-.66,.39-19.64-10.14-22.16-10.98-7.85-2.63-16.05-4.2-24.31-4.71-15.22-.94-30.06,3.29-45.26,2.89-33.07-.88-61.64-9.21-93.06,7.26Z"></path></g><g id="character"><path class="cls-6" d="M83.95,72.44c-2.82,1.84-5.45,4.23-6.9,7.39-1.45,3.15-1.52,7.17,.46,9.99,1.97,2.82,6.19,3.83,8.78,1.65-3.88,1.36-7.54,3.88-9.59,7.62-2.05,3.74-2.18,8.78,.32,12.2,2.5,3.42,7.77,4.43,10.85,1.59-2.41,1.99-2.39,6.25-.31,8.61,2.09,2.36,5.65,2.85,8.51,1.7,2.86-1.15,5.06-3.69,6.52-6.54s2.25-6,3.03-9.12c-.36,2.35,2.18,4.32,4.42,4.03,2.24-.29,4.03-2.11,5.34-4.05,2.23-3.3,3.6-7.24,3.9-11.28,3.39,2.33,7.03,4.48,11.04,5.09,4.01,.61,8.47-.58,10.98-3.94-.16,5.06,4.84,9.55,9.55,8.57,.36,4.23,1.84,8.55,4.91,11.3,3.07,2.75,7.93,3.49,11.15,.95,3.23-2.54,3.59-8.53,.24-10.88,2.95,1.91,7.15,1.01,9.41-1.77,2.26-2.77,2.56-7.02,1.02-10.3-1.54-3.28-4.71-5.54-8.11-6.22,3.7-1.07,6.11-5.64,5.03-9.52-1.09-3.88-5.47-6.34-9.12-5.12,1.66-.89,1.45-3.72,.02-4.98-1.43-1.26-3.47-1.35-5.32-1.23-5.05,.33-10.03,1.77-14.53,4.2-.33-2.31-2.31-4.04-4.44-4.68-2.13-.64-4.39-.41-6.59-.17-8.63,.93-16.92,2.42-25.48,.62-8.56-1.81-17.6-.59-25.1,4.3Z"></path><path class="cls-5" d="M110.35,118.48c1.98,6.94,4.44,13.88,8.73,19.79,1.78,2.45,4.11,4.84,7.18,5.35,4.33,.72,8.25-2.53,10.9-5.89,7-8.84,10.3-19.83,12.87-30.66,2.55-10.75,4.53-21.62,5.91-32.57,.24-1.92,.4-4.09-.89-5.58-1.16-1.33-3.12-1.68-4.91-1.95-11.98-1.76-24.05-3.52-36.16-3.18-3.1,.09-6.45,.41-8.76,2.39-2.88,2.47-3.55,7.15-2.6,10.59,1.06,3.87,1.56,7.39,1.96,11.44,1.02,10.22,2.95,20.36,5.77,30.27Z"></path><path class="cls-6" d="M125.1,92.54c-.31,.48-.44,1.05-.5,1.61-.13,1.36,.15,2.75,.81,3.96,.35,.64,.91,1.29,1.65,1.3,.87,.01,1.47-.84,1.74-1.63,.53-1.56,.46-3.63-.36-5.11-.7-1.25-2.53-1.38-3.35-.12Z"></path><path class="cls-6" d="M139.29,93.22c-.51,.97-.85,2.03-1.02,3.11-.1,.65-.13,1.32,.11,1.93s.8,1.14,1.47,1.2c.82,.07,1.52-.52,2.04-1.13,.75-.89,1.33-1.92,1.7-3.01,1.08-3.17-2.58-5.41-4.3-2.1Z"></path><path class="cls-6" d="M118.95,123.26c.23-.59,.88-1.14,1.76-1.27,1.04-.15,2.04,.32,2.82,.81,.78,.49,1.54,1.07,2.58,1.22,2.23,.33,4.28-1.45,6.5-1.1,.95,.15,1.69,.69,2.05,1.3s.38,1.3,.27,1.95c-.64,3.74-5.39,5.94-10.72,4.93-3.94-.75-6.22-5.38-5.26-7.84Z"></path><path class="cls-6" d="M112.48,80.56c-1.19,3.98-4.01,7.22-7.39,8.48,2.29,2.01,3.57,5.53,3.24,8.89s-2.27,6.43-4.88,7.75c1.08,3.88,.77,8.46-1.39,11.63s-6.31,4.43-9.2,2.24c-3-2.28-3.74-7.06-3.97-11.29-.5-9.19,.14-18.77,3.81-26.87,2.68-5.9,7.24-10.92,12.68-12.92,6.91-2.54,9.34,4.59,7.1,12.08Z"></path><path class="cls-4" d="M86.06,68.96c-1.14,.88-2.35,2.18-1.87,3.51,.48,1.32,2.26,1.62,3.72,1.7,23.89,1.26,47.86,1.03,71.72-.68,2.2-.16,4.94-.75,5.4-2.82,.46-2.06-1.77-3.69-3.73-4.64-9.44-4.59-19.85-7.29-30.4-8.02-10.27-.71-19.38,1.11-29.17,3.5-5.7,1.39-11.09,3.94-15.68,7.46Z"></path><path class="cls-4" d="M99.14,52.21c1.82-4.28,4.44-8.18,7.09-12.04,2.95-4.29,6.16-8.75,10.97-11.02,5.93-2.8,13.27-1.63,18.93,1.63,5.66,3.27,9.91,8.36,13.62,13.6,3.61,5.1,6.92,10.75,7.12,16.91,.05,1.43-.17,3.04-1.33,3.94-.97,.76-2.32,.8-3.57,.79-9.13-.12-18.15-1.89-27.23-2.81-7.11-.72-14.42-.9-21.44,.65-3.08,.68-6.25,2.84-6.45-1.34-.17-3.47,.93-7.13,2.28-10.31Z"></path><path class="cls-2" d="M131.03,66.81c-10.53,0-21.06-.8-31.47-2.41-.27-.04-.46-.3-.42-.57s.3-.46,.57-.42c16.63,2.57,33.55,3.08,50.31,1.52,.27-.03,.52,.18,.54,.45s-.18,.52-.45,.54c-6.35,.59-12.72,.88-19.09,.88Z"></path><path class="cls-2" d="M108.48,61.82h-.01c-.28,0-.49-.24-.49-.51,.3-10.48,4.05-20.89,10.58-29.3,.17-.22,.48-.26,.7-.09,.22,.17,.26,.48,.09,.7-6.4,8.25-10.08,18.45-10.37,28.72,0,.27-.23,.49-.5,.49Z"></path><path class="cls-2" d="M124.36,63.3c-.24,0-.45-.18-.49-.42-1.6-10.24-.67-20.85,2.67-30.69,.09-.26,.37-.4,.63-.31,.26,.09,.4,.37,.31,.63-3.29,9.69-4.2,20.14-2.63,30.21,.04,.27-.14,.53-.42,.57-.03,0-.05,0-.08,0Z"></path><path class="cls-2" d="M141.97,59.64h-.01c-.28,0-.49-.24-.49-.51,.21-7.91-2.13-15.93-6.62-22.57-.15-.23-.09-.54,.14-.69,.23-.15,.54-.09,.69,.14,4.59,6.82,7,15.04,6.79,23.16,0,.27-.23,.49-.5,.49Z"></path><path class="cls-5" d="M111.16,93.79c-1.91-3.54-7.56-4.34-10.7-1.72-3.14,2.62-3.28,7.75-.56,10.77,2.72,3.02,7.69,3.74,11.42,1.97"></path><path class="cls-5" d="M180.56,267.15c-5.82,7.41-7,17.82-2.36,25.89,4.63,8.08,15.12,13.17,24.95,11.61,5.81-.92,11.48-4.44,12.99-9.64,1.51-5.21-2.72-11.59-8.62-11.54,2.01,.99,4.87,.01,5.68-1.95,.8-1.96-.64-4.41-2.88-4.88-1.21-.25-2.52,.01-3.7-.35-2.67-.82-3.07-4.26-1.93-6.62,1.65-3.39,5.42-6.14,4.13-10.22-.97-3.06-3.26-3.78-6.51-3.73-8.24,.13-17.1,5.49-21.76,11.42Z"></path><path class="cls-7" d="M92.02,159.96c-7.45,3.12-15.09,7.35-18.67,14.59-4.43,8.96-1.37,19.68,2.1,29.06,11.63,31.47,28.02,62.57,54.82,82.75,5.04,3.79,10.86,7.3,17.16,7.01,10.67-.49,17.65-11.16,21.96-20.93,11.56-26.22,17.08-55.03,16.27-83.66-.24-8.53,1.18-28.61-5.95-34.72-7.96-6.83-30.02-5.11-39.8-4.7-16.42,.69-32.73,4.24-47.89,10.6Z"></path><path class="cls-3" d="M106.2,193.33c20.28,86.5,5.08,153.86-1.89,226.13,4.42,2.56,8.22,2.04,11.55-.83,2.39-24.91,4.78-49.82,7.17-74.73,1.4-14.57,3.51-30.67,16.44-39.1,3.43-2.24,7.69-3.1,11.6-1.86,8.02,2.54,9.13,11.07,9.45,18.39,1.38,32.42-.55,64.99-5.77,97.02,7.43,2.2,13.68,.64,19-.51,2.57-66.34,5.98-132.32,3.93-198.67-.6-19.39-10.03-65.69-11.29-69.35-2.17-6.28-7.2-4.57-10.92-.96,7.94,15.87,7.25,31.94,10.84,50.11,.57,2.91-1.24,6.05-3.52,7.95-2.33,1.93-5.62,2.07-8.64,2.12l-24.2,.39c-4.41,.07-8.15-3.22-8.66-7.6-2.02-17.25-7.11-31.56-18.3-45.92-3,.39-12.02,1.88-9.16,4.91,.98,1.04,9.78,21.4,12.38,32.5Z"></path><path class="cls-1" d="M113.62,278.82c3.18,1.5,6.92,.66,10.33-.19,13.99-3.52,27.98-7.04,41.98-10.56,4.18-1.05,8.57-2.21,11.68-5.2s4.31-8.43,1.37-11.59c-14.43,4.01-28.81,8.18-43.15,12.5-7.07,2.13-14.17,4.23-21.19,6.5-4.33,1.4-6.91,5.77-1.02,8.54Z"></path><path class="cls-4" d="M103.69,290.19c.77,1.49,1.66,3,3.06,3.93,2.11,1.41,4.87,1.2,7.4,.93,2.43-.26,4.9-.53,7.17-1.46,2.26-.93,4.33-2.62,5.14-4.93,1.47-4.17-1.45-8.45-2.64-12.71-1.09-3.9-.86-8.45-3.58-11.44-4.83-5.31-16.7-1.97-20.36,3.41-3.94,5.8,1.06,16.9,3.81,22.26Z"></path><path class="cls-4" d="M127.27,272.92c1.26,4.18,3.67,8.17,7.36,10.5,3.69,2.33,8.78,2.69,12.35,.18,1.38-.97,2.5-2.36,2.95-3.99,.43-1.59,.2-3.28-.16-4.89-.99-4.38-2.91-8.48-4.82-12.54-1.24-2.64-2.8-5.57-5.62-6.34-2.7-.74-10.69,2.16-12.52,4.23-2.48,2.81-.55,9.45,.47,12.85Z"></path><path class="cls-4" d="M173.1,261.21c.48,4.47,2.16,9.52,6.39,11.06,3,1.09,6.53-.08,8.71-2.42s3.1-5.64,3.06-8.83c-.04-3.19-.96-6.31-2.09-9.3-.81-2.15-1.78-4.32-3.41-5.94-3.37-3.33-10.88-3.87-13.57,.76-2.09,3.6,.5,10.8,.92,14.66Z"></path><path class="cls-6" d="M136.48,222.27c-1.77,.27-3.61,.6-5.02,1.69-2.37,1.84-2.8,5.19-3.04,8.18-.3,3.75-.47,7.9,1.89,10.84,2.66,3.32,7.48,3.77,11.72,3.66,5.53-.15,11.05-.81,16.45-1.98,3.75-.81,7.72-2.05,10-5.14,2.52-3.42,2.24-8.13,1.36-12.29-.56-2.64-1.4-5.39-3.41-7.19-3.51-3.14-7.99,.27-11.95,.48-6.03,.33-12.03,.84-18.01,1.74Z"></path><path class="cls-7" d="M86.29,167.73c6.78,2.45,11.3,8.39,12.59,14.62,1.29,6.23-.3,12.68-3.06,18.54-2.76,5.86-6.65,11.27-10.22,16.8-19.2,29.72-29.28,63.75-28.97,97.76-1.62,1.55-4.7,1.26-6.57-.06-1.88-1.32-2.84-3.34-3.72-5.28-3.81-8.41-7.37-16.9-10.66-25.47-5.93-15.4-11.07-31.74-7.68-47.7,2.4-11.28,8.9-21.55,15.31-31.61,6.39-10.02,12.15-20.71,19.36-30.3,4.76-6.32,15.18-10.36,23.63-7.31Z"></path><path class="cls-7" d="M232.36,177.86c6.6,4.42,13.07,9.52,16.87,16.49,7.41,13.57,2.68,31.17-7.25,43.02-9.92,11.85-24.06,19.21-37.8,26.28-2.9-1.47-6.62-2.25-.66-10.14,3.7-4.9,15.66-16.56,17.35-22.47,1.69-5.9,1.19-12.81-2.86-17.42-3.72-4.23-9.6-5.76-15.18-6.52-5.58-.77-11.38-1.03-16.43-3.54-8.3-4.12-12.79-13.67-13.42-22.92-.45-6.65,.03-17.55,3.43-23.5,3.09-5.38,11.94-.35,16.96,1.37,13.75,4.74,26.9,11.25,38.98,19.34Z"></path><path class="cls-4" d="M98.29,401.26l-2.11,27.34c-4.67,1.04-9.64,2.23-12.43,6.51-1.26,1.93-1.64,4.37-.78,6.51,1.42,3.5,4.89,4,8.04,4.29,6.92,.62,13.87,.83,20.82,.62,5.32-.16,11.39-.96,14.41-5.34,2.16-3.12,2.12-7.21,1.96-11-.25-6.28-.6-12.55-1.03-18.82-.31-4.5,.37-11.13-2.01-15.17-3.51-5.95-13.1-5.16-20.34-3.06-3.65,1.06-6.23,4.33-6.52,8.13Z"></path><path class="cls-4" d="M159.72,389.66c-2.76,.06-5.74,.43-7.77,2.3-2.03,1.86-2.64,4.77-3.12,7.48-2.03,11.55-3.47,23.21-4.31,34.91-.27,3.77-.36,7.94,2.04,10.86,2.05,2.49,5.41,3.43,8.59,3.99,8.7,1.52,17.71,1.21,26.28-.93,2.58-.64,5.21-1.5,7.14-3.33s2.94-4.87,1.71-7.22c-1.29-2.48-4.51-3.42-5.93-5.83-1-1.7-.92-3.8-.81-5.77,.33-5.84,.66-11.69,.99-17.53,.22-3.81,1.76-9.75-.74-13.1-4.2-5.65-17.99-5.83-24.08-5.83Z"></path><path class="cls-3" d="M77.3,320.34c5.51-.77,11.92-.22,15.35,5.07,2.04,3.15,2.57,7.35,2.8,11.36,.48,8.22,.05,16.51-1.27,24.59-.64,3.89-5.29,3.95-5.96,.06-1.03-5.92-.88-12.15,.57-17.97,.74-2.97,.89-6.15,.18-9.13-2.19-9.28-9.51-8.32-15.36-6.86-9.9,2.47-20.09,5.08-27.48,14.54-3.43,4.4-5.34,10.31-5.33,16.37,0,3.38-1.42,8.4-3.99,4.01-1.06-1.81-.46-7.63-.31-9.82,.35-5.38,1.86-8.78,5.08-12.46,9.57-10.98,22.71-17.93,35.72-19.76Z"></path><path class="cls-1" d="M97.06,352.46c4.9,.03,10.18,.29,14.02,3.34,3.9,3.1,5.33,8.3,6.53,13.14,.93,3.73,1.82,7.83,.15,11.3-2.29,4.74-8.22,6.19-13.41,7.05-29.16,4.86-58.56,8.29-88.05,10.29-2.72,.18-5.68,.29-7.89-1.31-2.94-2.13-3.3-6.34-2.92-9.95,.84-7.84,4.12-16.57,9.59-22.42,4.95-5.29,14.59-5.36,21.36-6.5,20.02-3.39,40.32-5.04,60.62-4.92Z"></path><path class="cls-2" d="M45.27,379.61c-3.34,0-6.6-.08-9.82-.25-3.69-.19-7.56-.54-10.79-2.48-3.1-1.86-5.71-5.93-4.44-9.8l.95,.31c-1.11,3.37,1.24,6.96,4.01,8.63,3.04,1.83,6.77,2.16,10.33,2.34,15.16,.78,31.39-.27,51.09-3.3,4.95-.76,9.72-1.66,13.55-4.27,3.64-2.48,6.59-7.37,5.2-11.91l.96-.29c1.53,5.01-1.66,10.35-5.6,13.03-4,2.73-8.89,3.66-13.96,4.44-15.59,2.4-29.02,3.55-41.47,3.56Z"></path><path class="cls-4" d="M56.67,379.16c.02,1.74,.45,3.59,1.73,4.78,1.64,1.54,4.15,1.56,6.4,1.5,2.54-.07,5.4-.29,7.06-2.22,1.43-1.66,1.48-4.07,1.46-6.26-.11-12.32-16.74-7.92-16.65,2.19Z"></path><path class="cls-2" d="M109.88,280.57c-1.96,0-4-.71-5.63-2.07-2.32-1.93-3.86-5.04-4.34-8.76l.99-.13c.45,3.47,1.86,6.35,3.99,8.12,2.47,2.06,5.99,2.44,8.35,.89,1.75-1.14,2.95-3.38,3.21-5.99,.24-2.42-.26-4.88-.74-7.26l.98-.2c.49,2.45,1.01,4.98,.75,7.55-.29,2.95-1.62,5.4-3.66,6.73-1.14,.74-2.5,1.11-3.91,1.11Z"></path><path class="cls-2" d="M135.04,272.36c-.99,0-1.97-.21-2.86-.65-2.9-1.42-4.47-5.08-3.49-8.16l.95,.3c-.83,2.63,.51,5.75,2.98,6.96,2.47,1.21,5.76,.36,7.33-1.91,1.57-2.26,1.21-5.64-.79-7.53l.69-.73c2.35,2.21,2.77,6.17,.93,8.83-1.27,1.84-3.51,2.88-5.72,2.88Z"></path><path class="cls-2" d="M182.9,257.52c-2.07,0-4.21-1.19-5.67-3.2-1.47-2.04-2.12-4.56-2.69-6.79l.97-.25c.58,2.25,1.17,4.57,2.53,6.45,1.2,1.65,3.4,3.13,5.63,2.72,1.08-.2,2.12-1.02,2.64-2.1,.43-.88,.44-1.78,.05-2.52l.88-.47c.54,1.01,.53,2.26-.03,3.43-.66,1.38-1.95,2.39-3.35,2.65-.31,.06-.63,.09-.95,.09Z"></path><path class="cls-2" d="M118.48,435.19c-5.85-3.87-12.92-5.67-19.91-5.07l-.09-1c7.21-.62,14.51,1.23,20.54,5.23l-.55,.83Z"></path><path class="cls-2" d="M152.3,438.45l1.29-1.43c6.64-7.32,17.85-10.31,27.25-7.27l-.31,.95c-8.56-2.77-18.67-.34-25.15,5.9l.24,.72-3.33,1.13Z"></path><path class="cls-5" d="M71.84,305.06c2.73-.93,5.66-1.83,8.45-1.09,2.91,.77,5.11,3.25,6.32,6.01,1.2,2.76,1.55,5.79,1.89,8.78,.38,3.37,.69,7.04-1.14,9.89-1.83,2.85-6.75,3.76-8.43,.82,.94,4.98,.97,10.36-1.33,14.88-2.3,4.52-7.37,7.89-12.36,6.98s-8.67-7.04-6.17-11.46c-4.22,2.53-10.05,1.55-13.62-1.83-3.57-3.38-4.92-8.75-3.97-13.57,2.64-13.44,19.37-15.67,30.35-19.41Z"></path><path class="cls-2" d="M194.99,295.22l-.56-.83c6.01-4.04,9.33-11.84,8.09-18.97l.98-.17c1.31,7.51-2.19,15.72-8.51,19.97Z"></path><path class="cls-2" d="M206.53,286.53c-2.05,0-4.1-.65-5.77-1.88l.59-.81c2.07,1.52,4.79,2.05,7.28,1.42l.25,.97c-.77,.2-1.56,.29-2.35,.29Z"></path><path class="cls-2" d="M58.16,340.48l-.94-.34c2.16-6.07,3.58-12.41,4.2-18.83l1,.1c-.63,6.5-2.06,12.92-4.25,19.07Z"></path></g><g id="shovel"><path class="cls-7" d="M487.89,318.59c-1.43-1.64-3.48-2.61-5.5-3.44-5.02-2.07-10.36-3.62-15.79-3.54-5.43,.08-10.99,1.97-14.71,5.92-3.72,3.96-5.22,10.15-2.9,15.06,2.32,4.91,8.78,7.69,13.64,5.28-3.22,13.57-7.03,27.01-11.41,40.25-3.87,11.71-8.43,23.09-12.94,34.56-1,2.55-2.49,10.93,3.7,9.28,3-.8,6.05-13.03,7.2-16,4.39-11.41,8.34-22.99,11.83-34.71,1.72-5.78,3.33-11.6,4.82-17.44,.61-2.37,5.38-15.45,4.05-17.15,2.7,3.45,7.98,4.21,11.95,2.35,3.97-1.86,6.64-5.86,7.73-10.11,.9-3.52,.72-7.59-1.67-10.33Zm-12.73,11.37c-3.03-.17-6.06-.34-9.09-.51-1.8-.1-3.65-.21-5.31-.92-1.66-.71-3.13-2.14-3.37-3.93-.25-1.93,1.01-3.82,2.7-4.79,1.69-.96,3.71-1.15,5.65-1.06,4.24,.19,11.06,1.87,14.29,4.92,4.25,4.01-.36,6.54-4.87,6.29Z"></path><path class="cls-8" d="M427.97,408.5c-2.92-.17-6.11-.14-8.41,1.67-1.94,1.52-2.84,3.98-3.55,6.34-3.13,10.27-4.58,21.06-4.26,31.8,9.09,.46,18.18,.91,27.27,1.37,3.13,.16,6.33,.31,9.32-.63,8.63-2.7,20.86-22.37,15.85-31.13-2.33-4.07-8.29-4.15-12.35-5.1-7.96-1.88-15.65-3.82-23.86-4.32Z"></path><path class="cls-7" d="M423.56,448.04c6.83-1.12,13.66-2.23,20.49-3.35,6.25-1.02,13.43-1.8,18.2,2.37,1.38,1.2,2.49,3.08,1.9,4.81-.72,2.1-3.36,2.69-5.57,2.91-15.54,1.53-31.27,1.06-46.69-1.39-3.87-.61-17.87-3.86-9.73-10.3,2.57-2.03,7.89-1,10.79-.34,2.25,.51,9.25,5.51,10.61,5.29Z"></path><path class="cls-2" d="M425.93,449.55c-.16,0-.32,0-.49-.01-3.23-.16-5.99-1.93-8.67-3.64-.81-.52-1.64-1.05-2.47-1.52-3.5-2.01-8.16-2.84-10.65-.16l-.73-.68c2.87-3.08,8.04-2.23,11.88-.02,.85,.48,1.69,1.02,2.51,1.55,2.57,1.64,5.22,3.34,8.18,3.48,2.19,.11,4.4-.66,6.53-1.4l.97-.34c10.01-3.41,21.21-3.96,31.51-1.55l-.23,.97c-10.12-2.37-21.12-1.82-30.96,1.53l-.96,.33c-2.07,.72-4.2,1.47-6.43,1.47Z"></path></g><g id="barrier"><path class="cls-5" d="M238.44,293.38c-3.74,1.05-4.47,5.96-4.48,9.84l-.27,133.23c0,.97,.09,1.94,.36,2.86,1.26,4.39,4.69,5.5,8.4,5.36,3.22-.13,5.77-2.78,5.85-6,1.08-41.39,1.05-82.84-.43-124.22-.19-5.27-.49-23.59-9.43-21.07Z"></path><path class="cls-5" d="M236.47,304.76c-1.96,.18-4.04,.41-5.57,1.63-2.69,2.14-2.31,6.86,.43,8.94,2.39,1.81,5.68,1.72,8.68,1.55,2.4-.14,4.79-.27,7.19-.41,1.05-.06,2.14-.13,3.06-.66,1.92-1.1,2.29-3.72,2.05-5.92-.49-4.53,.68-6.16-4.02-6.21-3.87-.04-7.95,.73-11.81,1.08Z"></path><path class="cls-5" d="M372.72,293.38c-3.74,1.05-4.47,5.96-4.48,9.84l-.27,133.23c0,.97,.09,1.94,.36,2.86,1.26,4.39,4.69,5.5,8.4,5.36,3.22-.13,5.77-2.78,5.85-6,1.08-41.39,1.05-82.84-.43-124.22-.19-5.27-.49-23.59-9.43-21.07Z"></path><path class="cls-5" d="M370.75,304.76c-1.96,.18-4.04,.41-5.57,1.63-2.69,2.14-2.31,6.86,.43,8.94,2.39,1.81,5.68,1.72,8.68,1.55,2.4-.14,4.79-.27,7.19-.41,1.05-.06,2.14-.13,3.06-.66,1.92-1.1,2.29-3.72,2.05-5.92-.49-4.53,.68-6.16-4.02-6.21-3.87-.04-7.95,.73-11.81,1.08Z"></path><path class="cls-4" d="M228.35,327.99c-1.74,3.14-1.76,6.92-1.73,10.51,.05,6.63,.1,13.27,.16,19.9,.02,3.07,.26,6.59,2.69,8.46,1.82,1.4,4.32,1.41,6.61,1.36,47.19-1.04,94.39-2.08,141.58-3.13,3.17-.07,6.67-.27,8.96-2.46,2.59-2.48,2.67-6.51,2.57-10.1-.17-6.13-.34-12.26-.51-18.39-.09-3.36-.33-7.07-2.7-9.45-2.49-2.51-6.43-2.65-9.96-2.63-40.11,.25-80.22,.66-120.32,1.41-5.66,.11-11.35,.42-17.01,.31-4.13-.08-8.06,.1-10.33,4.19Z"></path><path class="cls-4" d="M228.35,403.81c-1.74-1.34-1.76-2.95-1.73-4.48,.05-2.83,.1-5.65,.16-8.48,.02-1.31,.26-2.81,2.69-3.61,1.82-.6,4.32-.6,6.61-.58,47.19,.44,94.39,.89,141.58,1.33,3.17,.03,6.67,.11,8.96,1.05,2.59,1.05,2.67,2.78,2.57,4.3-.17,2.61-.34,5.22-.51,7.84-.09,1.43-.33,3.01-2.7,4.03-2.49,1.07-6.43,1.13-9.96,1.12-40.11-.11-80.22-.28-120.32-.6-5.66-.05-11.35-.18-17.01-.13-4.13,.03-8.06-.04-10.33-1.79Z"></path><path class="cls-1" d="M243.71,402.96c-.02,.22-.02,.46,.34,.69,.61,.39,1.92,.55,2.99,.63,5.2,.38,10.1,.25,14.93,.12,1.84-.05,3.74-.11,5.07-.47,1.82-.5,2.23-1.46,2.6-2.37,1.6-3.91,4.06-7.67,7.35-11.25,.37-.4,.58-.98-.61-1.34-.53-.16-1.17-.21-1.75-.24-2.68-.15-5.23-.09-7.75-.03-4.11,.09-8.21,.19-12.32,.28-1.28,.03-2.88-.03-3.71,.29-.86,.33-1.1,.97-1.5,1.42-2.17,2.44-3.73,5.02-4.66,7.69-.52,1.5-.85,3.04-.98,4.6Z"></path><path class="cls-1" d="M288.96,402.96c-.02,.22-.02,.46,.34,.69,.61,.39,1.92,.55,2.99,.63,5.2,.38,10.1,.25,14.93,.12,1.84-.05,3.74-.11,5.07-.47,1.82-.5,2.23-1.46,2.6-2.37,1.6-3.91,4.06-7.67,7.35-11.25,.37-.4,.58-.98-.61-1.34-.53-.16-1.17-.21-1.75-.24-2.68-.15-5.23-.09-7.75-.03-4.11,.09-8.21,.19-12.32,.28-1.28,.03-2.88-.03-3.71,.29-.86,.33-1.1,.97-1.5,1.42-2.17,2.44-3.73,5.02-4.66,7.69-.52,1.5-.85,3.04-.98,4.6Z"></path><path class="cls-1" d="M337.65,402.96c-.02,.22-.02,.46,.34,.69,.61,.39,1.92,.55,2.99,.63,5.2,.38,10.1,.25,14.93,.12,1.84-.05,3.74-.11,5.07-.47,1.82-.5,2.23-1.46,2.6-2.37,1.6-3.91,4.06-7.67,7.35-11.25,.37-.4,.58-.98-.61-1.34-.53-.16-1.17-.21-1.75-.24-2.68-.15-5.23-.09-7.75-.03-4.11,.09-8.21,.19-12.32,.28-1.28,.03-2.88-.03-3.71,.29-.86,.33-1.1,.97-1.5,1.42-2.17,2.44-3.73,5.02-4.66,7.69-.52,1.5-.85,3.04-.98,4.6Z"></path><path class="cls-1" d="M245.09,361.71c-.21,.56-.43,1.17-.27,1.76,.27,.99,1.43,1.39,2.43,1.59,4.87,.96,9.88,.63,14.83,.29,1.88-.13,3.84-.27,5.48-1.19,2.26-1.26,3.52-3.73,4.7-6.04,5.07-9.96,10.86-19.54,17.33-28.65,.73-1.03,1.45-2.5,.58-3.41-.39-.41-.98-.54-1.54-.62-2.55-.37-5.15-.23-7.72-.08-4.19,.24-8.38,.48-12.57,.72-1.3,.07-2.85-.07-3.96,.74-1.15,.84-1.96,2.47-2.76,3.61-4.33,6.21-8.17,12.77-11.48,19.58-1.85,3.82-3.54,7.73-5.05,11.7Z"></path><path class="cls-1" d="M290.35,360.88c-.21,.55-.43,1.15-.27,1.72,.27,.97,1.43,1.36,2.43,1.56,4.87,.94,9.88,.61,14.83,.29,1.88-.12,3.84-.27,5.48-1.17,2.26-1.23,3.52-3.64,4.7-5.9,5.07-9.73,10.86-19.09,17.33-28,.73-1,1.45-2.45,.58-3.34-.39-.4-.98-.52-1.54-.6-2.55-.37-5.15-.22-7.72-.08-4.19,.23-8.38,.47-12.57,.7-1.3,.07-2.85-.07-3.96,.72-1.15,.82-1.96,2.41-2.76,3.53-4.33,6.07-8.17,12.48-11.48,19.14-1.85,3.74-3.54,7.55-5.05,11.43Z"></path><path class="cls-1" d="M335.23,360.21c-.21,.54-.43,1.13-.27,1.68,.27,.95,1.43,1.34,2.43,1.53,4.87,.92,9.88,.6,14.83,.28,1.88-.12,3.84-.26,5.48-1.15,2.26-1.21,3.52-3.58,4.7-5.79,5.07-9.55,10.86-18.74,17.33-27.48,.73-.98,1.45-2.4,.58-3.27-.39-.39-.98-.51-1.54-.59-2.55-.36-5.15-.22-7.72-.08-4.19,.23-8.38,.46-12.57,.69-1.3,.07-2.85-.07-3.96,.71-1.15,.8-1.96,2.37-2.76,3.47-4.33,5.96-8.17,12.25-11.48,18.78-1.85,3.67-3.54,7.41-5.05,11.22Z"></path><path class="cls-7" d="M238.44,439.25c3.88-1.39,7.76-2.79,11.64-4.18,3.55-1.28,7.66-2.34,10.71,1.62,.88,1.15,1.66,2.97,1.44,4.72-.27,2.13-1.76,2.82-3.02,3.13-8.9,2.16-18.05,2.34-27.16,.53-2.29-.45-10.63-3.12-6.37-9.88,1.34-2.13,4.5-1.32,6.23-.78,1.34,.42,5.75,5.12,6.52,4.84Z"></path><path class="cls-2" d="M239.67,440.66s-.04,0-.06,0c-2-.03-3.76-1.72-5.47-3.35-.51-.49-1.02-.97-1.53-1.41-1.37-1.17-2.83-1.72-3.92-1.48-.78,.17-1.39,.75-1.83,1.7l-.91-.41c.56-1.24,1.44-2.03,2.52-2.27,1.41-.31,3.16,.31,4.79,1.7,.53,.45,1.05,.95,1.57,1.45,1.57,1.5,3.19,3.04,4.8,3.07,1.19,.04,2.31-.77,3.5-1.61l.55-.38c5.64-3.87,12.19-4.89,18.43-2.88l-.31,.95c-6.02-1.94-12.09-.99-17.56,2.75l-.54,.37c-1.25,.88-2.55,1.79-4.03,1.79Z"></path><path class="cls-7" d="M380.59,439.25c-3.88-1.39-7.76-2.79-11.64-4.18-3.55-1.28-7.66-2.34-10.71,1.62-.88,1.15-1.66,2.97-1.44,4.72,.27,2.13,1.76,2.82,3.02,3.13,8.9,2.16,18.05,2.34,27.16,.53,2.29-.45,10.63-3.12,6.37-9.88-1.34-2.13-4.5-1.32-6.23-.78-1.34,.42-5.75,5.12-6.52,4.84Z"></path><path class="cls-2" d="M379.36,440.66c-1.48,0-2.78-.91-4.03-1.79l-.53-.37c-5.46-3.74-11.53-4.7-17.56-2.75l-.31-.95c6.24-2.01,12.78-.99,18.43,2.88l.54,.38c1.13,.79,2.29,1.61,3.46,1.61,.01,0,.03,0,.04,0,1.61-.03,3.23-1.57,4.79-3.07,.52-.5,1.05-1,1.57-1.45,1.63-1.39,3.38-2.02,4.79-1.7,1.09,.24,1.96,1.02,2.52,2.27l-.91,.41c-.44-.96-1.05-1.53-1.83-1.7-1.09-.24-2.56,.31-3.92,1.48-.51,.44-1.02,.92-1.53,1.41-1.71,1.63-3.47,3.31-5.47,3.35-.02,0-.04,0-.06,0Z"></path></g></svg>